<svg id="visual" viewBox="0 0 960 540" width="960" height="540" xmlns="http://www.w3.org/2000/svg" xmlns:xlink="http://www.w3.org/1999/xlink" version="1.1"><rect width="960" height="540" fill="#e55e5e"></rect><g><g transform="translate(561 339)"><path d="M83.1 -28.5C95.2 10.5 84.2 55.5 55.3 76.7C26.3 97.8 -20.4 95.1 -50 72.7C-79.6 50.2 -92.1 8.1 -80.9 -29.5C-69.8 -67.2 -34.9 -100.3 0.3 -100.4C35.4 -100.5 70.9 -67.5 83.1 -28.5Z" stroke="#020202" fill="none" stroke-width="20"></path></g><g transform="translate(135 228)"><path d="M50.3 -16.4C56.5 2.7 46.8 26.9 28.4 40.6C10 54.3 -17 57.4 -33.5 45.6C-50 33.7 -55.9 6.8 -48.6 -13.8C-41.2 -34.5 -20.6 -48.8 0.7 -49.1C22.1 -49.3 44.1 -35.4 50.3 -16.4Z" stroke="#020202" fill="none" stroke-width="20"></path></g><g transform="translate(724 74)"><path d="M82.8 -29.1C94.4 8.6 81.8 51.9 51.9 74.2C22.1 96.5 -25 97.8 -52.3 76.8C-79.7 55.8 -87.3 12.5 -75.3 -25.9C-63.3 -64.2 -31.6 -97.6 2 -98.2C35.7 -98.9 71.3 -66.8 82.8 -29.1Z" stroke="#020202" fill="none" stroke-width="20"></path></g><g transform="translate(938 337)"><path d="M64.4 -23.3C72.7 4.4 61 36.2 38.3 52.7C15.5 69.2 -18.3 70.5 -43.4 53.7C-68.5 36.9 -84.8 2 -76.1 -26.3C-67.4 -54.5 -33.7 -76.2 -2.8 -75.3C28.1 -74.4 56.2 -50.9 64.4 -23.3Z" stroke="#020202" fill="none" stroke-width="20"></path></g><g transform="translate(73 520)"><path d="M56.4 -19.3C62.6 0.8 49.9 26 29.9 40.4C9.8 54.7 -17.5 58.3 -35.3 46C-53 33.7 -61.1 5.6 -53.7 -16.3C-46.2 -38.1 -23.1 -53.7 1 -54.1C25.1 -54.4 50.2 -39.4 56.4 -19.3Z" stroke="#020202" fill="none" stroke-width="20"></path></g></g></svg>