<svg id="visual" viewBox="0 0 1600 700" width="1600" height="700" xmlns="http://www.w3.org/2000/svg" xmlns:xlink="http://www.w3.org/1999/xlink" version="1.1"><rect width="1600" height="700" fill="#050505"></rect><g><g transform="translate(437 351)"><path d="M0 -49.9L43.2 -25L43.2 25L0 49.9L-43.2 25L-43.2 -25Z" stroke="#009473" fill="none" stroke-width="2"></path></g><g transform="translate(193 35)"><path d="M0 -35L30.3 -17.5L30.3 17.5L0 35L-30.3 17.5L-30.3 -17.5Z" stroke="#009473" fill="none" stroke-width="2"></path></g><g transform="translate(1139 453)"><path d="M0 -30L26 -15L26 15L0 30L-26 15L-26 -15Z" stroke="#009473" fill="none" stroke-width="2"></path></g><g transform="translate(1488 79)"><path d="M0 -30L26 -15L26 15L0 30L-26 15L-26 -15Z" stroke="#009473" fill="none" stroke-width="2"></path></g><g transform="translate(24 165)"><path d="M0 -48L41.6 -24L41.6 24L0 48L-41.6 24L-41.6 -24Z" stroke="#009473" fill="none" stroke-width="2"></path></g><g transform="translate(1253 425)"><path d="M0 -34L29.4 -17L29.4 17L0 34L-29.4 17L-29.4 -17Z" stroke="#009473" fill="none" stroke-width="2"></path></g><g transform="translate(247 210)"><path d="M0 -44L38.1 -22L38.1 22L0 44L-38.1 22L-38.1 -22Z" stroke="#009473" fill="none" stroke-width="2"></path></g><g transform="translate(53 384)"><path d="M0 -45L39 -22.5L39 22.5L0 45L-39 22.5L-39 -22.5Z" stroke="#009473" fill="none" stroke-width="2"></path></g><g transform="translate(666 688)"><path d="M0 -28L24.2 -14L24.2 14L0 28L-24.2 14L-24.2 -14Z" stroke="#009473" fill="none" stroke-width="2"></path></g><g transform="translate(706 188)"><path d="M0 -22L19.1 -11L19.1 11L0 22L-19.1 11L-19.1 -11Z" stroke="#009473" fill="none" stroke-width="2"></path></g><g transform="translate(1577 601)"><path d="M0 -44L38.1 -22L38.1 22L0 44L-38.1 22L-38.1 -22Z" stroke="#009473" fill="none" stroke-width="2"></path></g></g></svg>