<svg id="visual" viewBox="0 0 1600 100" width="1600" height="100" xmlns="http://www.w3.org/2000/svg" xmlns:xlink="http://www.w3.org/1999/xlink" version="1.1"><g stroke-width="2" stroke-linejoin="bevel"><path d="M880 100L1019 100L1012 0Z" fill="#567c4d" stroke="#000000"></path><path d="M1012 0L718 0L880 100Z" fill="#314a31" stroke="#000000"></path><path d="M1019 100L1184 0L1012 0Z" fill="#648e57" stroke="#000000"></path><path d="M1019 100L1215 100L1184 0Z" fill="#3d5a3b" stroke="#000000"></path><path d="M718 0L572 100L880 100Z" fill="#141c15" stroke="#000000"></path><path d="M574 0L572 100L718 0Z" fill="#73a060" stroke="#000000"></path><path d="M1215 100L1352 0L1184 0Z" fill="#3d5a3b" stroke="#000000"></path><path d="M1215 100L1388 100L1352 0Z" fill="#93c572" stroke="#000000"></path><path d="M574 0L372 100L572 100Z" fill="#93c572" stroke="#000000"></path><path d="M574 0L343 0L372 100Z" fill="#1d2b1e" stroke="#000000"></path><path d="M1388 100L1600 0L1352 0Z" fill="#496b44" stroke="#000000"></path><path d="M1600 100L1600 0L1388 100Z" fill="#314a31" stroke="#000000"></path><path d="M343 0L250 100L372 100Z" fill="#3d5a3b" stroke="#000000"></path><path d="M343 0L117 0L250 100Z" fill="#1d2b1e" stroke="#000000"></path><path d="M117 0L0 100L250 100Z" fill="#273a28" stroke="#000000"></path><path d="M117 0L0 0L0 100Z" fill="#1d2b1e" stroke="#000000"></path></g></svg>