<svg id="visual" viewBox="0 0 1600 100" width="1600" height="100" xmlns="http://www.w3.org/2000/svg" xmlns:xlink="http://www.w3.org/1999/xlink" version="1.1"><rect width="1600" height="100" fill="#050505"></rect><g><g transform="translate(507 78)"><path d="M0 -53.1L46 -26.5L46 26.5L0 53.1L-46 26.5L-46 -26.5Z" stroke="#009473" fill="none" stroke-width="2"></path></g><g transform="translate(1529 63)"><path d="M0 -44L38.1 -22L38.1 22L0 44L-38.1 22L-38.1 -22Z" stroke="#009473" fill="none" stroke-width="2"></path></g><g transform="translate(743 76)"><path d="M0 -29L25.1 -14.5L25.1 14.5L0 29L-25.1 14.5L-25.1 -14.5Z" stroke="#009473" fill="none" stroke-width="2"></path></g><g transform="translate(869 36)"><path d="M0 -35L30.3 -17.5L30.3 17.5L0 35L-30.3 17.5L-30.3 -17.5Z" stroke="#009473" fill="none" stroke-width="2"></path></g><g transform="translate(1229 44)"><path d="M0 -28L24.2 -14L24.2 14L0 28L-24.2 14L-24.2 -14Z" stroke="#009473" fill="none" stroke-width="2"></path></g></g></svg>