<svg id="visual" viewBox="0 0 960 540" width="960" height="540" xmlns="http://www.w3.org/2000/svg" xmlns:xlink="http://www.w3.org/1999/xlink" version="1.1"><rect width="960" height="540" fill="#a0eedc"></rect><g><g transform="translate(803 236)"><path d="M0 -95.5L82.7 -47.8L82.7 47.8L0 95.5L-82.7 47.8L-82.7 -47.8Z" fill="#009473"></path></g><g transform="translate(84 427)"><path d="M0 -47L40.7 -23.5L40.7 23.5L0 47L-40.7 23.5L-40.7 -23.5Z" fill="#009473"></path></g><g transform="translate(397 191)"><path d="M0 -51L44.2 -25.5L44.2 25.5L0 51L-44.2 25.5L-44.2 -25.5Z" fill="#009473"></path></g><g transform="translate(205 12)"><path d="M0 -48L41.6 -24L41.6 24L0 48L-41.6 24L-41.6 -24Z" fill="#009473"></path></g><g transform="translate(497 401)"><path d="M0 -79L68.4 -39.5L68.4 39.5L0 79L-68.4 39.5L-68.4 -39.5Z" fill="#009473"></path></g></g></svg>